<svg width="102" height="104" viewBox="0 0 102 104" fill="none" xmlns="http://www.w3.org/2000/svg">
<path fill-rule="evenodd" clip-rule="evenodd" d="M48.6208 0.000218463V22.1252C50.3668 22.1834 52.1188 22.1836 53.8668 22.1252V0L48.6208 0.000218463ZM32.8489 24.1331V30.8683H69.6393V24.1331C57.4522 26.9157 44.9167 26.8881 32.8489 24.1331ZM0.000218463 31.7973L2.04244 40.0147L30.9363 41.7837L32.9923 41.9066L32.8491 43.9626C32.2821 52.2855 33.9982 61.1592 38.4368 68.5401L40.1035 36.5242L0.000218463 31.7973ZM101.245 31.7973L62.3716 36.381L63.9426 66.5112C67.5398 59.5657 68.9123 51.5376 68.3962 43.9628L68.2596 41.907L70.3088 41.7839L99.2029 40.0149L101.245 31.7973H101.245ZM44.2769 34.9532L41.9474 79.6808V89.3393L51.6471 103.882L61.0527 89.599L58.2111 34.9532H53.2864V89.8038H49.2016V34.953H44.2769V34.9532ZM3.02563 44.168C3.79504 46.6236 4.78369 49.2011 5.94262 51.8044L28.7846 49.9329C28.7063 48.5296 28.6858 47.1274 28.7234 45.7388L3.02563 44.168ZM98.2191 44.168L72.5218 45.7388C72.5594 47.1274 72.5386 48.5296 72.4606 49.9329L95.3025 51.8044C96.461 49.2011 97.4501 46.6236 98.2188 44.1678L98.2191 44.168ZM29.1809 54.0043L7.82091 55.7529C9.01131 58.1086 10.3184 60.4464 11.7078 62.7061L30.0825 58.7104C29.7033 57.1547 29.4008 55.5798 29.1809 54.0043ZM72.064 54.0043C71.8448 55.5796 71.5482 57.1549 71.1696 58.7104L89.5372 62.7061C90.9267 60.4464 92.234 58.1086 93.424 55.7529L72.064 54.0043ZM31.2237 62.6449L14.0781 66.3745C15.5413 68.5167 17.0661 70.5386 18.6137 72.3786L32.808 66.6207C32.2124 65.319 31.6839 63.9926 31.2233 62.6451L31.2237 62.6449ZM70.0223 62.6449C69.5617 63.9926 69.0327 65.3186 68.4375 66.6205L82.6317 72.3786C84.1792 70.5392 85.7041 68.5171 87.1673 66.3748L70.022 62.6451L70.0223 62.6449Z" fill="#FFD166"/>
</svg>
