<svg width="112" height="112" viewBox="0 0 112 112" fill="none" xmlns="http://www.w3.org/2000/svg">
<path d="M101.271 88.8015C117.171 66.9203 115.257 36.1215 95.5261 16.3898C75.3947 -3.74164 43.7419 -5.32738 21.7944 11.6312C18.6164 7.91062 15.5425 4.19852 12.7918 0.682685L0.993421 12.4815C4.50971 15.2038 8.24238 18.2222 11.9915 21.3382C-5.34739 43.301 -3.88423 75.2555 16.3881 95.5277C36.0534 115.193 66.7109 117.158 88.5781 101.431L93.2371 106.09L110.879 110.484L105.899 93.4286L101.271 88.8014L101.271 88.8015ZM72.8808 60.4111L46.236 33.7668L56.2114 23.7908L48.9377 16.5164C69.5817 15.4867 86.6846 40.2035 72.8804 60.4109L72.8808 60.4111ZM48.4539 16.5438L36.604 28.395C35.1649 26.8026 33.6707 25.1437 32.1465 23.4398C37.4873 19.0387 43.0825 16.916 48.4541 16.5439L48.4539 16.5438ZM24.1983 31.75C25.8544 33.1957 27.4662 34.615 29.012 35.9875L16.7009 48.2989L24.203 55.8015L33.5749 46.429L88.2388 101.092C44.5436 130.504 -11.1407 76.3314 24.1982 31.75H24.1983Z" fill="#FFD166"/>
</svg>
