<svg width="105" height="105" viewBox="0 0 105 105" fill="none" xmlns="http://www.w3.org/2000/svg">
<path d="M6.62052 0C2.38438 0.177052 -0.0668116 2.48245 0.00138638 6.61936L4.32234 13.3473C5.29066 13.0822 6.36828 12.5084 7.43671 11.744L16.7208 24.8448C13.001 29.3979 9.88834 34.5587 7.38513 40.3284L13.1885 46.1322C15.653 40.9736 18.5731 36.334 21.9139 32.1726L67.9956 97.1956L104.457 104.455L97.197 67.994L32.1576 21.9003C36.5089 18.3794 41.3036 15.3625 46.508 12.812L40.704 7.00865C34.7572 9.58859 29.4596 12.8177 24.8053 16.6901L11.7441 7.43336C12.4967 6.37913 13.0692 5.30545 13.349 4.3203L6.62096 0H6.62052ZM94.2374 19.0021V19.0038L94.2381 19.0021H94.2374ZM94.2374 19.0038L88.111 46.3202L82.621 28.7039L78.6636 44.1505L72.792 33.3001L72.6644 45.9381L100.749 65.98L104.068 85.0005L103.812 44.1505L96.2807 52.8311L94.2379 19.0041L94.2374 19.0038ZM28.4548 25.1198L77.0292 68.0426L82.6348 82.633L68.0444 77.0274L25.1236 28.4554C26.1968 27.3017 27.3083 26.1909 28.4544 25.1198H28.4548ZM35.5161 68.022V68.0229H35.5172L35.5161 68.022ZM35.5172 68.0229L41.6437 73.0011L33.7288 73.8947L46.3673 78.1072L23.2617 79.0012L48.4097 85.0013L26.3258 89.086L54.1549 94.7027L39.474 104.277L85.0473 104.66L66.0269 101.341L43.1762 68.4058L35.5177 68.0229H35.5172Z" fill="#FFD166"/>
</svg>